<?xml version="1.0" encoding="UTF-8"?>
<svg width="720" height="170" viewBox="0 0 720 170" fill="none" xmlns="http://www.w3.org/2000/svg">
  <defs>
    <linearGradient id="neon" x1="8" y1="12" x2="186" y2="164" gradientUnits="userSpaceOnUse">
      <stop offset="0" stop-color="#63EEFF"/>
      <stop offset="1" stop-color="#1EC8FF"/>
    </linearGradient>
    <linearGradient id="txt" x1="190" y1="26" x2="610" y2="118" gradientUnits="userSpaceOnUse">
      <stop offset="0" stop-color="#F5FBFF"/>
      <stop offset="1" stop-color="#9CB5D7"/>
    </linearGradient>
    <filter id="glow" x="0" y="0" width="230" height="170" filterUnits="userSpaceOnUse" color-interpolation-filters="sRGB">
      <feGaussianBlur stdDeviation="6" result="blur"/>
      <feMerge>
        <feMergeNode in="blur"/>
        <feMergeNode in="SourceGraphic"/>
      </feMerge>
    </filter>
  </defs>

  <g filter="url(#glow)">
    <path d="M34 20H138L164 46V124L138 150H34L8 124V46L34 20Z" fill="#0B1524" stroke="url(#neon)" stroke-width="6"/>
    <rect x="38" y="50" width="96" height="60" rx="10" stroke="#2C4464" stroke-width="3"/>
    <path d="M88 56L66 90H84L72 116L106 80H88L100 56H88Z" fill="url(#neon)"/>
    <circle cx="122" cy="125" r="7" stroke="#63EEFF" stroke-width="3"/>
    <path d="M164 66H194" stroke="#63EEFF" stroke-width="4" stroke-linecap="round"/>
    <path d="M164 84H194" stroke="#4DDCFF" stroke-width="4" stroke-linecap="round"/>
    <path d="M164 102H194" stroke="#2CCFFF" stroke-width="4" stroke-linecap="round"/>
  </g>

  <text x="205" y="92" fill="url(#txt)" font-size="64" font-family="Orbitron, Segoe UI, Arial, sans-serif" font-weight="700" letter-spacing="1.5">TECH</text>
  <text x="424" y="92" fill="url(#neon)" font-size="64" font-family="Orbitron, Segoe UI, Arial, sans-serif" font-weight="700" letter-spacing="1.5">STORE</text>
  <text x="206" y="122" fill="#8DA6C4" font-size="18" font-family="Segoe UI, Arial, sans-serif" font-weight="700" letter-spacing="3">CUSTOM GAMING SYSTEMS</text>

  <path d="M206 136H605" stroke="#2A3D5A" stroke-width="4" stroke-linecap="round"/>
  <path d="M206 136H500" stroke="url(#neon)" stroke-width="4" stroke-linecap="round"/>
</svg>
